<?xml version="1.0" encoding="utf-8"?>
<!-- Generator: Adobe Illustrator 22.0.1, SVG Export Plug-In . SVG Version: 6.00 Build 0)  -->
<svg version="1.1" id="Слой_1" xmlns="http://www.w3.org/2000/svg" xmlns:xlink="http://www.w3.org/1999/xlink" x="0px" y="0px"
	 viewBox="0 0 32 32" style="enable-background:new 0 0 32 32;" xml:space="preserve">
<style type="text/css">
	.st0{fill:#C2C8CD;}
</style>
<path class="st0" d="M23.8,2.3c0.2-0.3,0.4-0.6,0.4-0.9c0-0.3-0.1-0.7-0.4-0.9S23.2,0,22.9,0S22.2,0.1,22,0.4L11.1,11.3
	c-1.2,1.3-2,2.9-2,4.7c0,1.8,0.7,3.5,2,4.7L22,31.6c0.3,0.2,0.6,0.4,0.9,0.4c0.3,0,0.7-0.1,0.9-0.4s0.4-0.6,0.4-0.9
	s-0.1-0.7-0.4-0.9L12.9,18.8c-0.7-0.8-1.2-1.8-1.2-2.8c0-1.1,0.4-2.1,1.2-2.8L23.8,2.3z"/>
</svg>
