<?xml version="1.0" encoding="utf-8"?>
<!-- Generator: Adobe Illustrator 22.0.1, SVG Export Plug-In . SVG Version: 6.00 Build 0)  -->
<svg version="1.1" id="Слой_1" xmlns="http://www.w3.org/2000/svg" xmlns:xlink="http://www.w3.org/1999/xlink" x="0px" y="0px"
	 viewBox="0 0 32 32" style="enable-background:new 0 0 32 32;" xml:space="preserve">
<style type="text/css">
	.st0{clip-path:url(#SVGID_2_);}
	.st1{fill:#C2C8CD;}
</style>
<g>
	<defs>
		<rect id="SVGID_1_" width="32" height="32"/>
	</defs>
	<clipPath id="SVGID_2_">
		<use xlink:href="#SVGID_1_"  style="overflow:visible;"/>
	</clipPath>
	<g class="st0">
		<path class="st1" d="M8.4,29.7c-0.1,0.1-0.2,0.3-0.3,0.4C8,30.3,8,30.5,8,30.7c0,0.2,0,0.4,0.1,0.5c0.1,0.2,0.2,0.3,0.3,0.4
			c0.1,0.1,0.3,0.2,0.4,0.3C9,32,9.2,32,9.3,32s0.4,0,0.5-0.1c0.2-0.1,0.3-0.2,0.4-0.3l10.9-10.9c1.2-1.3,1.9-2.9,1.9-4.7
			s-0.7-3.5-1.9-4.7L10.3,0.4C10,0.1,9.7,0,9.3,0C9,0,8.7,0.2,8.4,0.4C8.2,0.7,8,1,8,1.3C8,1.7,8.1,2,8.4,2.3l10.9,10.9
			c0.7,0.8,1.2,1.8,1.2,2.8c0,1.1-0.4,2.1-1.2,2.8L8.4,29.7z"/>
	</g>
</g>
</svg>
