<?xml version="1.0" encoding="utf-8"?>
<!-- Generator: Adobe Illustrator 22.0.1, SVG Export Plug-In . SVG Version: 6.00 Build 0)  -->
<svg version="1.1" id="Слой_1" xmlns="http://www.w3.org/2000/svg" xmlns:xlink="http://www.w3.org/1999/xlink" x="0px" y="0px"
	 viewBox="0 0 80 77" style="enable-background:new 0 0 80 77;" xml:space="preserve">
<style type="text/css">
	.st0{fill:#ECEFF2;}
	.st1{fill:#C2C8CD;}
	.st2{fill:#F3F3F1;}
	.st3{fill:#2A6CEA;}
	.st4{fill:#E1E6EA;}
	.st5{fill:#191C1F;fill-opacity:0.1;}
	.st6{fill:#D5DBE1;}
	.st7{fill:#FFFFFF;}
	.st8{fill:#191C1F;}
</style>
<g>
	<path class="st0" d="M73.8,40.7c-7.6-11.6-6.8-23.5-10.4-29c-3.6-5.6-14.5-15.2-40.2,1.6C-2.5,30,4.1,48.2,8.1,54.4
		C26.9,83.1,87.2,61.2,73.8,40.7z"/>
	<path class="st1" d="M65.9,42l1.4-1.4l2.8,2.8l-1.4,1.4L65.9,42z"/>
	<path class="st1" d="M57.8,33.9l1.4-1.4l2.8,2.8l-1.4,1.4L57.8,33.9z"/>
	<path class="st1" d="M66.3,35.3l2.8-2.8l1.4,1.4l-2.8,2.8L66.3,35.3z"/>
	<path class="st1" d="M42,66.2c-1.7,0-3-1.3-3-3c0-1.7,1.3-3,3-3s3,1.3,3,3C45,64.8,43.6,66.2,42,66.2z M42,62.2c-0.6,0-1,0.4-1,1
		c0,0.6,0.4,1,1,1c0.6,0,1-0.4,1-1C43,62.6,42.5,62.2,42,62.2z"/>
	<path class="st2" d="M43.1,33.5H20.5v7v14h7h7h15V40.6v-7.1H43.1z"/>
	<path class="st3" d="M54.5,40.6h-5v13.9h2h7h4v-5.9C62.5,44.2,58.9,40.6,54.5,40.6z"/>
	<path class="st2" d="M31,58.5c1.9,0,3.5-1.6,3.5-3.5s-1.6-3.5-3.5-3.5s-3.5,1.6-3.5,3.5S29.1,58.5,31,58.5z"/>
	<path class="st2" d="M55,58.5c1.9,0,3.5-1.6,3.5-3.5s-1.6-3.5-3.5-3.5s-3.5,1.6-3.5,3.5S53.1,58.5,55,58.5z"/>
	<path class="st3" d="M29,36.5c6.4,0,11.5-5.1,11.5-11.5S35.4,13.5,29,13.5S17.5,18.6,17.5,25S22.6,36.5,29,36.5z"/>
	<path class="st4" d="M25,36h-5v6.3V55h5V42.3V36z"/>
	<path class="st5" d="M49.5,40.6v13.9h2H54V40.6H49.5z"/>
	<path class="st6" d="M32,55c0-1.1,0.5-2,1.3-2.7c-0.6-0.5-1.4-0.8-2.3-0.8c-1.9,0-3.5,1.6-3.5,3.5s1.6,3.5,3.5,3.5
		c0.9,0,1.6-0.3,2.3-0.8C32.5,57,32,56.1,32,55z"/>
	<path class="st6" d="M56,55c0-1.1,0.5-2,1.3-2.7c-0.6-0.5-1.4-0.8-2.3-0.8c-1.9,0-3.5,1.6-3.5,3.5s1.6,3.5,3.5,3.5
		c0.9,0,1.6-0.3,2.3-0.8C56.5,57,56,56.1,56,55z"/>
	<path class="st5" d="M22,25c0-5.6,4-10.2,9.3-11.3c-0.7-0.1-1.5-0.2-2.3-0.2c-6.4,0-11.5,5.1-11.5,11.5S22.6,36.5,29,36.5
		c0.8,0,1.5-0.1,2.3-0.2C26,35.2,22,30.6,22,25z"/>
	<path class="st7" d="M29,30.5c-0.4,0-0.8-0.1-1.1-0.4l-6-6l2.1-2.1l4.9,4.9l4.9-4.9l2.1,2.1l-6,6C29.8,30.4,29.4,30.5,29,30.5z"/>
	<path class="st8" d="M29,56h-8.5c-0.8,0-1.5-0.7-1.5-1.5V38.8h3V53h7V56z"/>
	<path class="st8" d="M49.5,56H33v-3h15V35h-5.2v-3h6.7c0.8,0,1.5,0.7,1.5,1.5v21C51,55.3,50.3,56,49.5,56z"/>
	<path class="st8" d="M62.5,56H57v-3h4v-4.4c0-3.6-2.9-6.5-6.5-6.5H51V53h2v3h-3.5c-0.8,0-1.5-0.7-1.5-1.5V40.6
		c0-0.8,0.7-1.5,1.5-1.5h5c5.2,0,9.5,4.3,9.5,9.5v5.9C64,55.3,63.3,56,62.5,56z"/>
	<path class="st8" d="M31,60c-2.8,0-5-2.2-5-5c0-2.8,2.2-5,5-5s5,2.2,5,5C36,57.8,33.8,60,31,60z M31,53c-1.1,0-2,0.9-2,2
		c0,1.1,0.9,2,2,2c1.1,0,2-0.9,2-2C33,53.9,32.1,53,31,53z"/>
	<path class="st8" d="M55,60c-2.8,0-5-2.2-5-5c0-2.8,2.2-5,5-5s5,2.2,5,5C60,57.8,57.8,60,55,60z M55,53c-1.1,0-2,0.9-2,2
		c0,1.1,0.9,2,2,2s2-0.9,2-2C57,53.9,56.1,53,55,53z"/>
</g>
</svg>
