<?xml version="1.0" encoding="utf-8"?>
<!-- Generator: Adobe Illustrator 22.0.1, SVG Export Plug-In . SVG Version: 6.00 Build 0)  -->
<svg version="1.1" id="Слой_1" xmlns="http://www.w3.org/2000/svg" xmlns:xlink="http://www.w3.org/1999/xlink" x="0px" y="0px"
	 viewBox="0 0 72 80" style="enable-background:new 0 0 72 80;" xml:space="preserve">
<style type="text/css">
	.st0{fill:#ECEFF2;}
	.st1{fill:#F3F3F1;}
	.st2{fill:#E1E6EA;}
	.st3{fill:#2A6CEA;}
	.st4{fill:#FFFFFF;}
	.st5{fill:#191C1F;fill-opacity:0.1;}
	.st6{fill:#C2C8CD;}
	.st7{fill:#191C1F;}
</style>
<g>
	<path class="st0" d="M26.8,70.1C39.4,64.4,51,67,57.1,64.2c6.1-2.8,17.2-12,4.6-40C49-3.7,30,0,23.3,3.1
		C-8,17.2,4.5,80.2,26.8,70.1z"/>
	<path class="st1" d="M27.3,19.7h-0.2l4.7-3.7c1-0.8,0.4-2.5-0.9-2.5H18.1c-1.3,0-1.9,1.6-0.9,2.5l4.7,3.7h-0.2
		c-4.8,2.8-8.6,10.8-8.6,16.5c0,4.1,2.1,8.3,6.9,8.3h9.3c4.8,0,6.9-4.1,6.9-8.3C36.2,30.5,32.1,22.5,27.3,19.7z"/>
	<path class="st2" d="M17.7,36.2c0-5.8,3.8-13.7,8.6-16.5h0.2L21.8,16c-1-0.8-0.4-2.5,0.9-2.5h-4.5c-1.3,0-1.9,1.6-0.9,2.5l4.7,3.7
		h-0.2c-4.8,2.8-8.6,10.8-8.6,16.5c0,4.1,2.1,8.3,6.9,8.3h4.5C19.7,44.5,17.7,40.4,17.7,36.2z"/>
	<path class="st1" d="M49.7,19.7h-0.2l4.7-3.7c1-0.8,0.4-2.5-0.9-2.5H40.6c-1.3,0-1.9,1.6-0.9,2.5l4.7,3.7h-0.2
		c-4.8,2.8-8.6,10.8-8.6,16.5c0,4.1,2.1,8.3,6.9,8.3h9.3c4.8,0,6.9-4.1,6.9-8.3C58.7,30.5,54.5,22.5,49.7,19.7z"/>
	<path class="st2" d="M40.1,36.2c0-5.8,3.8-13.7,8.6-16.5h0.2L44.2,16c-1-0.8-0.4-2.5,0.9-2.5h-4.5c-1.3,0-1.9,1.6-0.9,2.5l4.7,3.7
		h-0.2c-4.8,2.8-8.6,10.8-8.6,16.5c0,4.1,2.1,8.3,6.9,8.3H47C42.2,44.5,40.1,40.4,40.1,36.2z"/>
	<path class="st3" d="M38.8,33.7h-0.2l4.7-3.7c1-0.8,0.4-2.5-0.9-2.5H29.7c-1.3,0-1.9,1.6-0.9,2.5l4.7,3.7h-0.2
		c-4.8,2.8-8.6,10.8-8.6,16.5c0,4.1,2.1,8.3,6.9,8.3h9.3c4.8,0,6.9-4.1,6.9-8.3C47.8,44.5,43.6,36.5,38.8,33.7z"/>
	<path class="st4" d="M35.1,52.4c-0.4,0-0.8-0.2-1.1-0.4l-4-4l2.1-2.1l2.8,2.8l5-6.6l2.4,1.8l-6,8c-0.3,0.3-0.7,0.6-1.1,0.6
		C35.1,52.4,35.1,52.4,35.1,52.4z"/>
	<path class="st5" d="M29.2,50.2c0-5.8,3.8-13.7,8.6-16.5H38L33.3,30c-1-0.8-0.4-2.5,0.9-2.5h-4.5c-1.3,0-1.9,1.6-0.9,2.5l4.7,3.7
		h-0.2c-4.8,2.8-8.6,10.8-8.6,16.5c0,4.1,2.1,8.3,6.9,8.3h4.5C31.3,58.5,29.2,54.4,29.2,50.2z"/>
	<path class="st6" d="M59.9,54.8l2.8-2.8l1.4,1.4l-2.8,2.8L59.9,54.8z"/>
	<path class="st6" d="M51.8,62.9l2.8-2.8l1.4,1.4l-2.8,2.8L51.8,62.9z"/>
	<path class="st6" d="M51.8,53.1l1.4-1.4l2.8,2.8l-1.4,1.4L51.8,53.1z"/>
	<path class="st6" d="M59.9,61.2l1.4-1.4l2.8,2.8L62.8,64L59.9,61.2z"/>
	<path class="st7" d="M28.4,20.9l-1.9-2.3l4.4-3.5H18.8l4.4,3.5l-1.9,2.3l-4.7-3.7c-1-0.8-1.3-2-0.9-3.2c0.4-1.2,1.5-1.9,2.7-1.9
		h12.8c1.2,0,2.3,0.8,2.7,1.9s0,2.4-0.9,3.2L28.4,20.9z"/>
	<path class="st7" d="M17.6,18.2h14.5v3H17.6V18.2z"/>
	<path class="st7" d="M20.4,46c-5.8,0-8.4-4.9-8.4-9.8c0-5.8,3.8-14.6,9.4-17.8l1.5,2.6c-4.1,2.4-7.9,9.7-7.9,15.2
		c0,1.1,0.3,6.8,5.4,6.8V46z"/>
	<path class="st7" d="M50.6,20.9l-1.9-2.3l4.4-3.5H41.1l4.4,3.5l-1.9,2.3l-4.7-3.7c-1-0.8-1.3-2-0.9-3.2c0.4-1.2,1.5-1.9,2.7-1.9
		h12.8c1.2,0,2.3,0.8,2.7,1.9s0,2.4-0.9,3.2L50.6,20.9z"/>
	<path class="st7" d="M39.9,18.2h14.5v3H39.9V18.2z"/>
	<path class="st7" d="M51.6,46v-3c5.1,0,5.4-5.6,5.4-6.8c0-5.6-3.8-12.8-7.9-15.2l1.5-2.6c5.5,3.2,9.4,12,9.4,17.8
		C60,41.1,57.4,46,51.6,46z"/>
</g>
</svg>
