<?xml version="1.0" encoding="utf-8"?>
<!-- Generator: Adobe Illustrator 22.0.1, SVG Export Plug-In . SVG Version: 6.00 Build 0)  -->
<svg version="1.1" id="Слой_1" xmlns="http://www.w3.org/2000/svg" xmlns:xlink="http://www.w3.org/1999/xlink" x="0px" y="0px"
	 viewBox="0 0 72 72" style="enable-background:new 0 0 72 72;" xml:space="preserve">
<style type="text/css">
	.st0{fill:#ECEFF2;}
	.st1{fill:#C2C8CD;}
	.st2{fill:#F3F3F1;}
	.st3{fill:#2A6CEA;}
	.st4{fill:#E1E6EA;}
	.st5{fill:#191C1F;fill-opacity:0.1;}
	.st6{fill:#191C1F;}
	.st7{fill:#FFFFFF;}
</style>
<path class="st0" d="M8.3,55.2c0-13.8-7.2-23.3-7.2-30S5,4.6,35.7,4.6c30.7,0,35.2,18.8,35.2,26.2C70.8,65.1,8.3,79.7,8.3,55.2z"/>
<path class="st1" d="M53.2,16.5h2v4h-2V16.5z"/>
<path class="st1" d="M57.7,22.5h4v2h-4V22.5z"/>
<path class="st2" d="M42.5,48.6V17.5c0-2.2-1.8-4-4-4h-21c-2.2,0-4,1.8-4,4v31.1c0,2.2,1.8,4,4,4h21C40.7,52.6,42.5,50.8,42.5,48.6z
	"/>
<path class="st3" d="M48,58.5c0,0,10.5-4.5,10.5-13.4c0-3.6,0-8,0-8L48,33.5l-10.5,3.6v8C37.5,54,48,58.5,48,58.5z"/>
<path class="st4" d="M18,48.6V17.5c0-2.2,1.8-4,4-4h-4.5c-2.2,0-4,1.8-4,4v31.1c0,2.2,1.8,4,4,4H22C19.8,52.6,18,50.8,18,48.6z"/>
<path class="st5" d="M42,45.1c0-5.4,0-8,0-8l8.3-2.8L48,33.5l-10.5,3.6v8C37.5,54,48,58.5,48,58.5s0.9-0.4,2.3-1.2
	C47.2,55.4,42,51.4,42,45.1z"/>
<path class="st6" d="M30.5,54h-13c-3,0-5.5-2.5-5.5-5.5v-31c0-3,2.5-5.5,5.5-5.5h21c3,0,5.5,2.5,5.5,5.5v11h-3v-11
	c0-1.4-1.1-2.5-2.5-2.5h-21c-1.4,0-2.5,1.1-2.5,2.5v31c0,1.4,1.1,2.5,2.5,2.5h13V54z"/>
<path class="st6" d="M20.6,37.6l-2.1-2.1l5-5c0.5-0.5,1.2-0.6,1.8-0.2l2.5,1.5l5.7-5.3l2,2.2l-6.5,6c-0.5,0.4-1.2,0.5-1.8,0.2
	l-2.5-1.4L20.6,37.6z"/>
<path class="st6" d="M36,34h-3v-5h-5v-3h6.5c0.8,0,1.5,0.7,1.5,1.5V34z"/>
<path class="st7" d="M47.5,51c-0.4,0-0.8-0.2-1.1-0.4l-4-4l2.1-2.1l2.8,2.8l5-6.6l2.4,1.8l-6,8C48.4,50.7,48,51,47.6,51
	C47.6,51,47.5,51,47.5,51z"/>
</svg>
