<?xml version="1.0" encoding="utf-8"?>
<!-- Generator: Adobe Illustrator 22.0.1, SVG Export Plug-In . SVG Version: 6.00 Build 0)  -->
<svg version="1.1" id="Слой_1" xmlns="http://www.w3.org/2000/svg" xmlns:xlink="http://www.w3.org/1999/xlink" x="0px" y="0px"
	 viewBox="0 0 80 77" style="enable-background:new 0 0 80 77;" xml:space="preserve">
<style type="text/css">
	.st0{fill:#ECEFF2;}
	.st1{fill:#F3F3F1;}
	.st2{fill:#E1E6EA;}
	.st3{fill:#2A6CEA;}
	.st4{fill:#191C1F;fill-opacity:0.1;}
	.st5{fill:#C2C8CD;}
	.st6{fill:#FFFFFF;}
	.st7{fill:#191C1F;}
</style>
<g>
	<path class="st0" d="M73.8,40.7c-7.6-11.6-6.8-23.5-10.4-29c-3.6-5.6-14.5-15.2-40.2,1.6C-2.5,30,4.1,48.2,8.1,54.4
		C26.9,83.1,87.2,61.2,73.8,40.7z"/>
	<path class="st1" d="M41.5,22.9c0,0.5-0.3,0.9-0.7,1l-9.7,3.2l-3.2,9.7c-0.1,0.4-0.5,0.7-1,0.7c-0.4,0-0.8-0.3-1-0.7l-8.3-21.9
		c-0.1-0.1-0.1-0.2-0.1-0.4c0-0.6,0.5-1,1-1c0.1,0,0.3,0,0.4,0.1l21.9,8.3C41.2,22.1,41.5,22.4,41.5,22.9z"/>
	<path class="st2" d="M22.1,14.9c0,0,0-0.1,0-0.2l-3.1-1.2c-0.1-0.1-0.2-0.1-0.4-0.1c-0.6,0-1,0.5-1,1c0,0.1,0,0.3,0.1,0.4l8.3,21.9
		c0.1,0.4,0.5,0.7,1,0.7c0.5,0,0.9-0.3,1-0.7l1.2-3.6L22.1,14.9z"/>
	<path class="st3" d="M49,58.5c7.5,0,13.5-6,13.5-13.5s-6-13.5-13.5-13.5s-13.5,6-13.5,13.5S41.5,58.5,49,58.5z"/>
	<path class="st4" d="M40,45c0-6.7,4.9-12.2,11.3-13.3c-0.7-0.1-1.5-0.2-2.3-0.2c-7.5,0-13.5,6-13.5,13.5s6,13.5,13.5,13.5
		c0.8,0,1.5-0.1,2.3-0.2C44.9,57.2,40,51.7,40,45z"/>
	<path class="st5" d="M64.3,25.4l1.4-1.4l2.8,2.8l-1.4,1.4L64.3,25.4z"/>
	<path class="st5" d="M56.1,17.2l1.4-1.4l2.8,2.8L59,20.1L56.1,17.2z"/>
	<path class="st5" d="M64.6,18.6l2.8-2.8l1.4,1.4L66,20.1L64.6,18.6z"/>
	<path class="st5" d="M56.5,26.8l2.8-2.8l1.4,1.4l-2.8,2.8L56.5,26.8z"/>
	<path class="st6" d="M53.5,51.7L48,47.2c-0.4-0.3-0.6-0.7-0.6-1.2v-8.5h3v7.8l5,4L53.5,51.7z"/>
	<path class="st7" d="M26.9,39c-1,0-2-0.7-2.4-1.6l-8.3-21.9c-0.1-0.2-0.2-0.6-0.2-0.9c0-1.4,1.1-2.5,2.5-2.5c0.4,0,0.7,0.1,1,0.2
		l21.8,8.3c1,0.4,1.6,1.3,1.6,2.4c0,1.1-0.7,2.1-1.8,2.4l-9,2.9l-2.9,9C29,38.3,28,39,26.9,39z M19.3,15.3l7.5,19.7l2.8-8.5
		c0.1-0.5,0.5-0.8,1-1l8.5-2.8L19.3,15.3z M18.4,15C18.4,15,18.4,15,18.4,15L18.4,15z M18.9,14.3L18.9,14.3
		C19,14.4,19,14.3,18.9,14.3z"/>
</g>
</svg>
