<?xml version="1.0" encoding="utf-8"?>
<!-- Generator: Adobe Illustrator 22.0.1, SVG Export Plug-In . SVG Version: 6.00 Build 0)  -->
<svg version="1.1" id="Слой_1" xmlns="http://www.w3.org/2000/svg" xmlns:xlink="http://www.w3.org/1999/xlink" x="0px" y="0px"
	 viewBox="0 0 24 24" style="enable-background:new 0 0 24 24;" xml:space="preserve">
<style type="text/css">
	.st0{fill:#2A6CEA;}
	.st1{fill:none;stroke:#2A6CEA;stroke-width:2;}
</style>
<path class="st0" d="M17,11h-4V7c0-0.3-0.1-0.5-0.3-0.7C12.5,6.1,12.3,6,12,6s-0.5,0.1-0.7,0.3C11.1,6.5,11,6.7,11,7v4H7
	c-0.3,0-0.5,0.1-0.7,0.3C6.1,11.5,6,11.7,6,12s0.1,0.5,0.3,0.7C6.5,12.9,6.7,13,7,13h4v4c0,0.3,0.1,0.5,0.3,0.7S11.7,18,12,18
	s0.5-0.1,0.7-0.3S13,17.3,13,17v-4h4c0.3,0,0.5-0.1,0.7-0.3S18,12.3,18,12s-0.1-0.5-0.3-0.7S17.3,11,17,11z"/>
<circle class="st1" cx="12" cy="12" r="11"/>
</svg>
