<?xml version="1.0" encoding="utf-8"?>
<!-- Generator: Adobe Illustrator 22.0.1, SVG Export Plug-In . SVG Version: 6.00 Build 0)  -->
<svg version="1.1" id="Слой_1" xmlns="http://www.w3.org/2000/svg" xmlns:xlink="http://www.w3.org/1999/xlink" x="0px" y="0px"
	 viewBox="0 0 32 32" style="enable-background:new 0 0 32 32;" xml:space="preserve">
<style type="text/css">
	.st0{fill:#191C1F;}
	.st1{fill:none;stroke:#191C1F;stroke-width:2;}
</style>
<g>
	<path class="st0" d="M22.7,14.7h-5.4V9.3c0-0.4-0.1-0.7-0.4-1C16.7,8.1,16.3,8,16,8c-0.4,0-0.7,0.1-1,0.4c-0.3,0.3-0.4,0.6-0.4,1
		v5.4H9.2c-0.4,0-0.7,0.1-1,0.4c-0.3,0.3-0.4,0.6-0.4,1s0.1,0.7,0.4,1s0.6,0.4,1,0.4h5.4V23c0,0.4,0.1,0.7,0.4,1
		c0.3,0.3,0.6,0.4,1,0.4s0.7-0.1,1-0.4s0.4-0.6,0.4-1v-5.4h5.4c0.4,0,0.7-0.1,1-0.4s0.4-0.6,0.4-1s-0.1-0.7-0.4-1
		C23.4,14.8,23,14.7,22.7,14.7z"/>
	<circle class="st1" cx="16" cy="16" r="14.8"/>
</g>
</svg>
