<?xml version="1.0" encoding="utf-8"?>
<!-- Generator: Adobe Illustrator 22.0.1, SVG Export Plug-In . SVG Version: 6.00 Build 0)  -->
<svg version="1.1" id="Слой_1" xmlns="http://www.w3.org/2000/svg" xmlns:xlink="http://www.w3.org/1999/xlink" x="0px" y="0px"
	 viewBox="0 0 120 24" style="enable-background:new 0 0 120 24;" xml:space="preserve">
<style type="text/css">
	.st0{fill:#ECEFF2;}
	.st1{fill:#2A6CEA;}
	.st2{fill:#191C1F;}
</style>
<circle class="st0" cx="25" cy="12" r="12"/>
<circle class="st1" cx="12" cy="12" r="12"/>
<path class="st2" d="M51.2,18.2c-2.3,0-3.4-1.1-3.4-3.3V9.6h-1.3V7.5h1.3V5.3h2.9v2.3h2.2v2.1h-2.2v5c0,0.8,0.4,1.2,1.2,1.2
	c0.4,0,0.8-0.1,1.1-0.2v2.2C52.4,18.1,51.9,18.2,51.2,18.2z M60,18.2c-1.6,0-2.9-0.5-3.9-1.4c-1-1-1.6-2.3-1.6-3.9v-0.2
	c0-1.6,0.5-2.9,1.6-4c1-1,2.3-1.5,3.8-1.5c1.5,0,2.6,0.4,3.6,1.3c1,0.9,1.5,2.3,1.5,4.1v0.8h-7.5c0,0.9,0.3,1.6,0.7,2
	c0.5,0.5,1.1,0.7,1.9,0.7c1.3,0,2-0.5,2.2-1.5H65c-0.2,1.1-0.7,2-1.6,2.6C62.6,17.9,61.4,18.2,60,18.2z M62.2,11.6
	c-0.1-1.6-0.9-2.3-2.3-2.3c-0.7,0-1.2,0.2-1.6,0.6c-0.4,0.4-0.7,1-0.8,1.7H62.2z M71,18.2c-1.4,0-2.5-0.3-3.3-0.9
	c-0.8-0.6-1.2-1.5-1.3-2.6h2.7c0.1,0.5,0.3,0.9,0.5,1.1c0.3,0.2,0.7,0.4,1.3,0.4c1.1,0,1.6-0.4,1.6-1.1c0-0.4-0.2-0.6-0.5-0.8
	c-0.3-0.2-0.9-0.3-1.6-0.4c-1.4-0.2-2.4-0.6-3-1c-0.6-0.5-0.9-1.2-0.9-2.2c0-1,0.4-1.8,1.3-2.5c0.7-0.5,1.7-0.8,2.9-0.8
	C72,7.3,73,7.5,73.8,8c0.8,0.5,1.2,1.4,1.4,2.5h-2.7c-0.1-0.4-0.2-0.8-0.5-1c-0.3-0.2-0.6-0.3-1.1-0.3c-0.5,0-0.8,0.1-1.1,0.3
	c-0.3,0.2-0.4,0.5-0.4,0.8c0,0.3,0.1,0.6,0.4,0.7c0.3,0.2,0.8,0.3,1.6,0.4c1.4,0.2,2.4,0.5,3,0.9c0.7,0.5,1,1.3,1,2.3
	c0,1.1-0.4,2-1.2,2.6C73.5,17.9,72.4,18.2,71,18.2z M81.3,18.2c-2.3,0-3.4-1.1-3.4-3.3V9.6h-1.3V7.5H78V5.3h2.9v2.3H83v2.1h-2.2v5
	c0,0.8,0.4,1.2,1.2,1.2c0.4,0,0.8-0.1,1.1-0.2v2.2C82.6,18.1,82,18.2,81.3,18.2z M85.6,3.7h3.2v11.8h5.8V18h-9.1V3.7z M99.6,18.2
	c-1,0-1.8-0.2-2.5-0.7c-0.7-0.5-1-1.3-1-2.4c0-1.2,0.5-2,1.5-2.6c0.9-0.5,2.2-0.8,3.9-0.8h1.2v-0.4c0-0.7-0.1-1.2-0.4-1.5
	c-0.2-0.3-0.7-0.5-1.3-0.5c-1,0-1.6,0.5-1.8,1.5h-2.7c0.1-1.2,0.6-2.1,1.5-2.7c0.8-0.6,1.9-0.9,3.2-0.9c1.3,0,2.4,0.3,3.2,0.9
	c0.8,0.6,1.2,1.6,1.2,3V18h-2.8v-1.3C102,17.7,101,18.2,99.6,18.2z M100.4,16.2c0.7,0,1.2-0.2,1.6-0.5c0.4-0.3,0.6-0.8,0.6-1.4v-0.9
	h-1.1c-0.9,0-1.5,0.1-2,0.3c-0.4,0.2-0.7,0.6-0.7,1.1C98.9,15.8,99.4,16.2,100.4,16.2z M114.5,18.2c-0.8,0-1.5-0.2-2.1-0.5
	c-0.6-0.3-1-0.8-1.3-1.4V18h-2.9V2.8h2.9v6.4c0.3-0.5,0.8-1,1.3-1.3c0.6-0.4,1.3-0.5,2-0.5c1.3,0,2.4,0.5,3.2,1.4
	c0.9,1,1.3,2.3,1.3,4v0.2c0,1.7-0.4,3-1.3,4C116.9,17.7,115.8,18.2,114.5,18.2z M113.6,16c0.8,0,1.4-0.3,1.8-0.8
	c0.4-0.5,0.6-1.3,0.6-2.3v-0.2c0-1-0.2-1.8-0.7-2.4c-0.5-0.5-1.1-0.8-1.8-0.8c-0.8,0-1.4,0.3-1.9,0.8c-0.5,0.5-0.7,1.3-0.7,2.3v0.2
	c0,1,0.2,1.8,0.7,2.3C112.2,15.7,112.8,16,113.6,16z"/>
</svg>
