<?xml version="1.0" encoding="utf-8"?>
<!-- Generator: Adobe Illustrator 22.0.1, SVG Export Plug-In . SVG Version: 6.00 Build 0)  -->
<svg version="1.1" id="Слой_1" xmlns="http://www.w3.org/2000/svg" xmlns:xlink="http://www.w3.org/1999/xlink" x="0px" y="0px"
	 viewBox="0 0 24 24" style="enable-background:new 0 0 24 24;" xml:space="preserve">
<style type="text/css">
	.st0{fill:#2A6CEA;}
</style>
<path class="st0" d="M9.4,17.3c-0.2,0.2-0.3,0.4-0.3,0.7c0,0.3,0.1,0.5,0.3,0.7c0.2,0.2,0.4,0.3,0.7,0.3c0.3,0,0.5-0.1,0.7-0.3
	l4.6-4.6c0.6-0.6,0.9-1.3,0.9-2.1s-0.3-1.6-0.9-2.1l-4.6-4.6C10.6,5.1,10.4,5,10.1,5C9.9,5,9.6,5.1,9.4,5.3C9.3,5.5,9.1,5.8,9.1,6
	c0,0.3,0.1,0.5,0.3,0.7l4.6,4.6c0.2,0.2,0.3,0.4,0.3,0.7c0,0.3-0.1,0.5-0.3,0.7L9.4,17.3z"/>
</svg>
